<svg width="35" height="26" viewBox="0 0 35 26" fill="none" xmlns="http://www.w3.org/2000/svg">
<path d="M4.66357 4.3645L6.98133 6.68226" stroke="#8B8B8B" stroke-width="1.5" stroke-miterlimit="10" stroke-linecap="round" stroke-linejoin="round"/>
<path d="M12.514 1V4.28972" stroke="#8B8B8B" stroke-width="1.5" stroke-miterlimit="10" stroke-linecap="round" stroke-linejoin="round"/>
<path d="M20.5887 4.21509L18.1962 6.53284" stroke="#8B8B8B" stroke-width="1.5" stroke-miterlimit="10" stroke-linecap="round" stroke-linejoin="round"/>
<path d="M4.66357 22.309L6.98133 19.9912" stroke="#8B8B8B" stroke-width="1.5" stroke-miterlimit="10" stroke-linecap="round" stroke-linejoin="round"/>
<path d="M1 13.4108H4.28972" stroke="#8B8B8B" stroke-width="1.5" stroke-miterlimit="10" stroke-linecap="round" stroke-linejoin="round"/>
<path d="M7.87856 17.6723C6.9066 16.5508 6.30847 15.0555 6.30847 13.4106C6.30847 9.82183 9.22436 6.83118 12.8879 6.83118C14.7571 6.83118 16.4767 7.65361 17.673 8.92463" stroke="#8B8B8B" stroke-width="1.5" stroke-miterlimit="10" stroke-linecap="round" stroke-linejoin="round"/>
<path d="M34.1962 20.0656C34.1962 21.1871 33.8224 22.2339 33.1495 23.0563C32.2523 24.2526 30.8317 25.0002 29.2616 25.0002H14.9065C14.3084 25.0002 13.7102 24.9255 13.1869 24.7012C12.7383 24.5516 12.3644 24.3273 11.9906 24.0283C10.7944 23.1311 9.97192 21.7105 9.97192 20.0656C9.97192 19.4675 10.0467 18.9441 10.271 18.4955C10.5701 17.5236 11.243 16.7012 11.9906 16.103C12.813 15.5049 13.785 15.1311 14.9065 15.1311C15.5794 15.1311 16.2523 15.2806 16.8504 15.5049C16.9252 13.4862 18.1962 11.8413 19.9158 11.0937C20.514 10.8694 21.1121 10.7198 21.785 10.7198C24.4766 10.7198 26.7196 12.9628 26.7196 15.6544C26.7196 15.7292 26.7196 15.7292 26.7196 15.804C27.4673 15.3554 28.2897 15.1311 29.2616 15.1311C30.3831 15.1311 31.3551 15.5049 32.1775 16.103C32.5514 16.4021 32.8504 16.7012 33.1495 17.075C33.7476 17.8227 34.1962 18.8694 34.1962 20.0656Z" stroke="#8B8B8B" stroke-width="1.5" stroke-linecap="round" stroke-linejoin="round"/>
</svg>
