<svg width="28" height="23" viewBox="0 0 28 23" fill="none" xmlns="http://www.w3.org/2000/svg">
<path d="M27.0002 17.3611C27.0002 18.3124 26.6831 19.2002 26.1123 19.8977C25.3514 20.9123 24.1465 21.5465 22.8148 21.5465H10.6392C10.1319 21.5465 9.62458 21.4831 9.18068 21.2928C8.80019 21.166 8.48312 20.9758 8.16605 20.7221C7.15142 19.9611 6.45386 18.7563 6.45386 17.3611C6.45386 16.8538 6.51727 16.4099 6.70752 16.0294C6.96117 15.205 7.5319 14.5075 8.16605 14.0002C8.86361 13.4929 9.688 13.1758 10.6392 13.1758C11.2099 13.1758 11.7807 13.3026 12.288 13.4929C12.3514 11.7807 13.4295 10.3855 14.888 9.7514C15.3953 9.56116 15.9026 9.43433 16.4733 9.43433C18.7563 9.43433 20.6587 11.3368 20.6587 13.6197C20.6587 13.6831 20.6587 13.6831 20.6587 13.7465C21.2928 13.366 21.9904 13.1758 22.8148 13.1758C23.766 13.1758 24.5904 13.4929 25.288 14.0002C25.605 14.2538 25.8587 14.5075 26.1123 14.8246C26.6197 15.5221 27.0002 16.4099 27.0002 17.3611Z" stroke="#8B8B8B" stroke-width="1.5" stroke-linecap="round" stroke-linejoin="round"/>
<path d="M3.47316 15.2683C1.95122 13.7463 1 11.6536 1 9.3073C1 4.74145 4.74145 1 9.3073 1C10.4488 1 11.5268 1.25366 12.5414 1.63414C9.56096 2.90243 7.40486 5.88292 7.40486 9.3073C7.40486 9.7512 7.46828 10.1317 7.46828 10.5756" stroke="#8B8B8B" stroke-width="1.5" stroke-miterlimit="10" stroke-linecap="round" stroke-linejoin="round"/>
</svg>
